<?xml version="1.0" encoding="UTF-8" standalone="no"?><!DOCTYPE svg PUBLIC "-//W3C//DTD SVG 1.1//EN" "http://www.w3.org/Graphics/SVG/1.1/DTD/svg11.dtd"><svg width="100%" height="100%" viewBox="0 0 1024 1024" version="1.1" xmlns="http://www.w3.org/2000/svg" xmlns:xlink="http://www.w3.org/1999/xlink" xml:space="preserve" xmlns:serif="http://www.serif.com/" style="fill-rule:evenodd;clip-rule:evenodd;stroke-linecap:round;stroke-linejoin:round;stroke-miterlimit:1;"><rect id="logo_light_trans" x="0" y="0" width="1024" height="1024" style="fill:none;"/><path d="M891.865,396.193c2.762,-0 5,2.239 5,5c0,46.885 0,408.742 0,455.627c0,2.762 -2.238,5 -5,5c-22.451,0 -113.834,0 -136.285,0c-2.762,0 -5,-2.238 -5,-5c-0,-46.885 -0,-408.742 -0,-455.627c-0,-2.761 2.238,-5 5,-5c22.451,-0 113.834,-0 136.285,-0Z" style="fill:none;stroke:#1a1a1a;stroke-width:22.94px;"/><path d="M246.655,300.592c53.615,-42.446 121.367,-67.8 194.994,-67.8c73.627,-0 141.379,25.354 194.994,67.8c17.996,14.248 34.4,30.421 48.898,48.208c1.611,1.988 1.46,4.871 -0.349,6.681c-25.175,25.177 -191.823,191.825 -191.823,191.825c-0,0 166.648,166.649 191.824,191.824c1.81,1.81 1.961,4.695 0.35,6.684c-14.5,17.785 -30.904,33.958 -48.9,48.206c-53.615,42.446 -121.367,67.8 -194.994,67.8c-73.627,0 -141.379,-25.354 -194.994,-67.8c-19.174,-15.18 -36.54,-32.546 -51.72,-51.72c-42.446,-53.615 -67.8,-121.367 -67.8,-194.994c-0,-73.627 25.354,-141.379 67.8,-194.994c15.18,-19.174 32.546,-36.54 51.72,-51.72Z" style="fill:none;stroke:#1a1a1a;stroke-width:23.41px;"/><path d="M290.749,643.842c-17.785,-27.902 -28.097,-61.024 -28.097,-96.536c-0,-35.512 10.312,-68.634 28.097,-96.536c1.907,-2.992 5.068,-4.958 8.596,-5.343c3.527,-0.386 7.039,0.849 9.547,3.358l90.247,90.246c4.57,4.57 4.57,11.98 -0,16.55l-90.247,90.246c-2.508,2.509 -6.02,3.744 -9.547,3.359c-3.528,-0.386 -6.689,-2.352 -8.596,-5.344Zm55.298,-248.37c27.903,-17.786 61.025,-28.097 96.536,-28.097c35.512,-0 68.634,10.311 96.537,28.097c2.992,1.907 4.957,5.068 5.343,8.596c0.386,3.527 -0.85,7.038 -3.359,9.547l-90.246,90.246c-4.57,4.571 -11.98,4.571 -16.55,0l-90.246,-90.246c-2.509,-2.509 -3.744,-6.02 -3.358,-9.547c0.386,-3.528 2.351,-6.689 5.343,-8.596Zm193.073,303.669c-27.903,17.785 -61.025,28.097 -96.537,28.097c-35.511,-0 -68.633,-10.312 -96.536,-28.097c-2.992,-1.908 -4.957,-5.069 -5.343,-8.596c-0.386,-3.527 0.849,-7.039 3.358,-9.548l90.246,-90.246c4.57,-4.571 11.98,-4.571 16.55,-0l90.246,90.246c2.509,2.509 3.745,6.021 3.359,9.548c-0.386,3.527 -2.351,6.688 -5.343,8.596Z" style="fill:#1a1a1a;fill-opacity:0.5;"/><path d="M891.064,162.166c1.331,-0.008 2.61,0.515 3.554,1.454c0.944,0.938 1.475,2.215 1.475,3.546c0,22.503 0,113.814 0,136.256c0,2.761 -2.238,5 -5,5l-137.574,-0c-2.204,-0 -4.148,-1.444 -4.786,-3.553c-5.789,-19.15 -33.295,-110.126 -40.874,-135.191c-0.456,-1.51 -0.174,-3.146 0.763,-4.415c0.936,-1.269 2.416,-2.022 3.993,-2.032c30.04,-0.179 152.099,-0.908 178.449,-1.065Z" style="fill:#e91e63;stroke:#e91e63;stroke-width:23.41px;"/></svg>